<?xml version="1.0" encoding="iso-8859-1"?>
<!-- Uploaded to: SVG Repo, www.svgrepo.com, Generator: SVG Repo Mixer Tools -->
<svg version="1.1" id="Layer_1" xmlns="http://www.w3.org/2000/svg" xmlns:xlink="http://www.w3.org/1999/xlink" 
	 viewBox="0 0 512 512" xml:space="preserve">
<g>
	<rect x="86.804" y="444.484" style="fill:#E8D6BD;" width="338.393" height="67.516"/>
	<rect x="86.792" style="fill:#E8D6BD;" width="338.415" height="67.516"/>
</g>
<path style="fill:#D2BA9C;" d="M425.196,45.011v421.978H86.804L86.792,45.011H425.196z"/>
<g>
	<path style="fill:#BD9F79;" d="M86.792,45.011c63.207,133.165,63.207,288.813,0.011,421.978
		C23.597,333.824,23.597,178.176,86.792,45.011z"/>
	<path style="fill:#BD9F79;" d="M425.208,45.011c63.195,133.165,63.195,288.813-0.011,421.978
		C362.001,333.824,362.001,178.176,425.208,45.011z"/>
</g>
<path style="fill:#B75548;" d="M198.78,198.78l73.134,41.307l41.307,73.134c-21.774,21.774-65.041,13.807-96.65-17.791
	C184.973,263.821,177.006,220.554,198.78,198.78z"/>
<path style="fill:#8E4238;" d="M295.43,216.57c31.598,31.598,39.565,74.876,17.791,96.65L198.78,198.78
	C220.554,177.006,263.832,184.973,295.43,216.57z"/>
</svg>