<?xml version="1.0" encoding="iso-8859-1"?>
<!-- Uploaded to: SVG Repo, www.svgrepo.com, Generator: SVG Repo Mixer Tools -->
<svg version="1.1" id="Layer_1" xmlns="http://www.w3.org/2000/svg" xmlns:xlink="http://www.w3.org/1999/xlink" 
	 viewBox="0 0 512 512" xml:space="preserve">
<rect x="92.39" y="7.837" style="fill:#FFE477;" width="327.22" height="496.327"/>
<rect x="92.39" y="458.71" style="fill:#FFF5CC;" width="327.22" height="45.453"/>
<rect x="256" y="458.71" style="fill:#EEBF00;" width="163.61" height="45.453"/>
<rect x="92.39" y="7.837" style="fill:#FFF5CC;" width="327.22" height="67.02"/>
<rect x="256" y="7.837" style="fill:#EEBF00;" width="163.61" height="67.02"/>
<rect x="256" y="74.856" style="fill:#FFD442;" width="163.61" height="383.854"/>
<path style="fill:#B6E892;" d="M238.228,332.876c-21.011-17.946-55.472-53.644-55.472-94.761c0-59.144,71.314-107.09,71.314-107.09
	s71.314,47.946,71.314,107.09c0,41.244-34.676,77.037-55.667,94.928l10.736,53.569h-42.226L238.228,332.876L238.228,332.876z"/>
<path style="fill:#7ED63E;" d="M254.071,386.612h26.384l-10.736-53.566c20.991-17.893,55.668-53.687,55.668-94.931
	c0-59.145-71.314-107.09-71.314-107.09L254.071,386.612z"/>
<polygon points="234.109,67.072 218.384,67.02 218.331,82.631 234.109,82.683 "/>
<polygon points="265.456,67.072 249.731,67.02 249.678,82.631 265.456,82.683 "/>
<polygon points="296.803,67.072 281.078,67.02 281.025,82.631 296.803,82.683 "/>
<polygon points="328.15,67.072 312.424,67.02 312.372,82.631 328.15,82.683 "/>
<polygon points="390.844,67.072 375.118,67.02 375.066,82.631 390.844,82.683 "/>
<polygon points="359.497,67.072 343.771,67.02 343.719,82.631 359.497,82.683 "/>
<polygon points="140.069,67.072 124.343,67.02 124.291,82.631 140.069,82.683 "/>
<polygon points="202.762,67.072 187.037,67.02 186.984,82.631 202.762,82.683 "/>
<polygon points="171.415,67.072 155.69,67.02 155.638,82.631 171.415,82.683 "/>
<path d="M427.447,466.547V0H84.553v512h342.894v-30.302h-15.673v14.629H100.227v-29.78H427.447z M411.773,15.673v51.368
	l-5.308-0.022l-0.052,15.611l5.36,0.022v368.221H100.227V82.655l8.495,0.028V67.072l-8.495-0.028v-51.37H411.773z"/>
<path d="M230.392,336.454v57.995h59.626l-11.721-58.478c22.009-19.488,54.924-55.691,54.924-97.856
	c0-62.599-71.726-111.541-74.778-113.593l-4.373-2.939l-4.373,2.939c-3.053,2.053-74.778,50.995-74.778,113.593
	C174.92,280.664,208.464,317.153,230.392,336.454z M254.076,140.697c15.015,11.279,63.472,51.264,63.472,97.419
	c0,38.167-33.153,72.121-52.915,88.964l-3.506,2.987l9.762,48.708h-24.827v-49.511l-2.747-2.346
	c-19.691-16.82-52.725-50.721-52.725-88.802C190.594,192.059,239.071,151.993,254.076,140.697z"/>
<polygon points="246.234,313.64 261.908,313.64 261.908,278.03 292.782,247.156 281.699,236.073 261.908,255.864 261.908,175.275 
	246.234,175.275 246.234,225.538 225.495,204.798 214.411,215.88 246.234,247.705 "/>
</svg>